<?xml version="1.0" standalone="no"?>
<!DOCTYPE svg PUBLIC "-//W3C//DTD SVG 20010904//EN"
 "http://www.w3.org/TR/2001/REC-SVG-20010904/DTD/svg10.dtd">
<svg version="1.0" xmlns="http://www.w3.org/2000/svg"
 width="373.000000pt" height="373.000000pt" viewBox="0 0 373.000000 373.000000"
 preserveAspectRatio="xMidYMid meet">
<metadata>
Created by potrace 1.14, written by Peter Selinger 2001-2017
</metadata>
<g transform="translate(0.000000,373.000000) scale(0.100000,-0.100000)"
fill="#000000" stroke="none">
<path d="M2 1863 l3 -1868 2 1858 3 1857 1860 0 c1233 0 1860 3 1860 10 0 7
-628 10 -1865 10 l-1865 0 2 -1867z"/>
<path d="M2050 2042 c0 -1220 0 -1241 19 -1247 11 -3 43 -31 70 -61 62 -67 94
-157 89 -246 -2 -32 -1 -58 2 -59 8 -3 84 23 95 32 5 5 17 9 26 9 10 0 25 7
33 16 9 8 20 13 25 10 18 -12 307 148 319 176 2 4 8 8 14 8 6 0 31 16 55 36
35 28 42 39 31 46 -10 7 -8 8 5 4 18 -6 22 -2 130 113 18 18 33 38 33 45 1 6
2 21 3 34 0 12 5 22 10 22 5 0 7 -10 4 -22 -5 -23 -5 -23 10 -3 8 11 18 39 22
63 4 23 11 40 16 37 4 -3 4 -17 -2 -32 -12 -32 -5 -42 10 -14 7 11 9 32 5 46
-7 28 11 35 20 8 4 -15 5 -15 4 2 -1 42 2 51 11 36 6 -9 10 -5 13 15 4 29 3
29 -40 25 -41 -3 -43 -2 -40 20 2 13 9 30 16 37 6 7 12 27 12 43 0 17 7 37 15
45 16 16 21 54 7 54 -4 0 -19 -7 -32 -16 l-25 -16 23 20 c12 11 22 25 22 30 0
6 4 12 9 14 9 3 22 129 22 213 0 37 2 44 8 25 l7 -25 7 25 c9 35 9 40 -5 35
-10 -4 -13 21 -14 105 0 66 -5 115 -11 121 -7 7 -9 18 -6 25 3 8 1 14 -3 14
-5 0 -8 26 -7 57 2 43 0 52 -6 33 l-9 -25 -1 28 c-1 33 -32 159 -38 154 -2 -2
3 -50 12 -105 55 -366 -56 -705 -314 -959 -80 -80 -84 -86 -71 -106 36 -56 62
-109 57 -114 -6 -5 -391 15 -413 22 -8 2 -4 20 12 52 13 26 24 54 24 61 0 6 5
12 10 12 6 0 10 5 10 10 0 17 115 249 123 250 5 0 15 -7 23 -15 9 -8 12 -15 7
-15 -4 0 -3 -4 2 -8 6 -4 18 -24 28 -45 10 -24 22 -35 29 -31 7 4 8 3 4 -4 -4
-6 1 -23 10 -37 l16 -25 29 23 c27 21 41 45 17 31 -7 -4 -8 -3 -4 5 4 6 12 9
17 6 5 -4 22 8 37 27 15 18 35 40 44 50 25 25 86 116 93 138 4 11 11 20 16 20
5 0 9 5 9 11 0 5 11 34 24 62 13 29 32 81 41 117 9 36 22 83 28 105 6 22 12
98 11 170 0 109 -4 148 -28 240 -16 61 -32 115 -36 120 -4 6 -15 31 -25 58
-10 26 -21 47 -26 47 -4 0 -10 8 -13 18 -8 23 -66 114 -87 135 -9 9 -20 13
-24 9 -5 -4 -5 -1 -1 5 15 27 -218 224 -245 207 -8 -4 -9 -3 -5 4 4 8 -3 16
-20 22 -33 13 -46 3 -21 -15 12 -8 14 -15 8 -20 -6 -3 -11 -2 -11 3 0 6 -6 12
-12 15 -9 3 -14 -10 -15 -45 -1 -42 2 -54 23 -73 13 -13 38 -28 54 -35 17 -7
30 -16 30 -21 0 -5 7 -9 15 -9 9 0 27 -11 41 -25 14 -14 31 -25 39 -25 8 0 19
-9 25 -19 5 -11 19 -23 30 -26 11 -4 18 -11 15 -16 -4 -5 5 -20 19 -34 13 -13
33 -38 42 -55 10 -16 21 -30 25 -30 4 0 12 -13 19 -30 7 -16 16 -30 20 -30 4
0 15 -25 25 -55 11 -30 23 -55 28 -55 4 0 6 -4 3 -8 -7 -12 15 -93 24 -87 4 3
8 -12 8 -33 1 -53 6 -89 14 -97 4 -4 3 -15 -2 -25 -6 -11 -6 -30 0 -50 6 -21
6 -48 0 -74 -12 -50 -12 -68 0 -41 7 16 9 14 9 -15 1 -26 -2 -31 -9 -20 -10
16 -10 18 -13 -82 -1 -31 -6 -48 -14 -48 -7 0 -13 -11 -13 -24 0 -14 -5 -28
-10 -31 -6 -4 -8 -11 -5 -16 8 -12 -24 -44 -33 -34 -4 4 -1 10 6 12 16 6 16
33 -1 33 -17 0 -16 -78 2 -89 9 -6 10 -11 2 -15 -6 -4 -11 -2 -11 4 0 7 -6 10
-14 7 -7 -3 -19 0 -25 6 -8 8 -11 8 -11 -1 0 -7 5 -12 10 -12 6 0 10 -9 10
-20 0 -11 -4 -20 -10 -20 -5 0 -10 -10 -10 -21 0 -19 2 -20 17 -8 15 13 15 12
3 -7 l-13 -22 -19 22 c-10 12 -16 14 -13 6 4 -11 -2 -16 -17 -17 -26 -2 -61
-40 -52 -55 3 -5 14 -2 24 7 24 22 44 11 28 -15 -7 -10 -16 -16 -20 -13 -11 6
-38 -15 -38 -29 0 -6 7 -5 15 2 11 9 15 9 15 1 0 -6 -12 -16 -26 -21 -32 -13
-34 -12 -34 1 0 18 -33 39 -46 28 -11 -9 -54 23 -54 41 0 11 -36 49 -47 51 -4
1 -16 -16 -25 -37 -12 -26 -18 -33 -18 -19 -1 19 -2 18 -22 -5 -14 -16 -19
-19 -15 -8 4 12 1 18 -7 18 -8 0 -17 -11 -20 -25 -4 -14 -10 -25 -16 -25 -14
0 -24 44 -11 48 6 2 11 21 11 43 0 32 -3 39 -20 39 -17 0 -20 7 -20 40 0 30 4
40 16 40 11 0 14 5 10 16 -3 9 -6 25 -6 36 0 18 -2 19 -17 7 -9 -8 -14 -9 -11
-4 5 7 -31 12 -105 13 -116 3 -147 7 -147 22 0 13 94 30 178 31 60 1 69 3 42
9 -35 7 -24 14 18 10 12 -1 22 3 22 9 0 6 -6 11 -12 12 -7 0 -21 2 -30 4 -10
2 -18 -1 -18 -6 0 -5 -5 -9 -11 -9 -8 0 -7 5 2 16 9 12 24 15 54 11 22 -3 32
-3 22 0 -9 2 -14 9 -10 15 4 7 0 9 -10 5 -12 -5 -17 -1 -17 12 0 12 -10 21
-26 25 -20 5 -25 12 -21 26 3 12 0 20 -8 20 -7 0 -19 7 -26 17 -13 15 -12 15
9 4 26 -14 31 3 5 19 -16 9 -15 10 5 5 13 -4 22 -2 22 4 0 6 -7 11 -16 11 -8
0 -12 5 -9 10 3 5 1 10 -4 10 -6 0 -11 5 -11 10 0 6 6 10 14 10 8 0 14 10 14
23 0 12 1 29 3 37 1 8 1 29 0 45 -1 23 -3 27 -11 15 -8 -13 -10 -12 -10 3 0
20 -23 23 -39 4 -7 -10 -25 -12 -61 -7 -82 10 -83 26 -2 39 34 5 55 4 63 -3 9
-8 10 -7 6 7 -6 15 -3 17 13 12 11 -4 20 -2 20 4 0 6 12 11 26 11 14 0 32 7
40 15 14 13 14 15 0 15 -8 0 -18 -4 -21 -10 -3 -5 -25 -9 -48 -8 l-42 1 45 7
45 7 -56 1 c-93 3 -149 13 -149 28 0 11 26 14 123 15 67 1 110 4 95 6 -16 2
-28 11 -28 19 0 8 -5 14 -11 14 -6 0 -9 -7 -5 -15 4 -11 -1 -15 -19 -15 -18 0
-23 4 -19 15 7 18 -7 20 -25 3 -11 -11 -13 -10 -9 2 3 8 13 20 24 25 12 6 18
19 17 35 -1 14 0 19 3 13 3 -7 10 -13 16 -13 19 0 -12 28 -37 34 -17 4 -25 13
-25 27 0 16 4 19 21 14 13 -4 19 -3 16 2 -4 6 -26 10 -51 10 -81 2 -116 25
-55 37 55 11 89 7 89 -9 0 -8 6 -15 14 -15 7 0 21 -10 30 -22 14 -19 14 -18
-1 10 -9 17 -21 32 -26 32 -5 0 -6 7 -3 16 4 12 1 14 -14 9 -16 -5 -20 -2 -20
18 0 21 -6 25 -41 30 -39 5 -68 21 -58 31 3 3 30 9 61 14 52 8 57 7 63 -12 7
-20 7 -20 12 -2 5 20 -15 39 -34 31 -7 -2 -10 2 -6 11 3 8 -1 14 -8 14 -12 0
-12 2 -1 9 9 5 -4 11 -37 15 -28 4 -51 11 -51 15 0 11 55 31 84 31 17 0 18 2
6 10 -13 9 -13 10 0 10 13 0 13 1 0 10 -13 8 -12 10 5 11 11 1 -4 7 -33 14
-30 7 -56 16 -60 20 -15 14 29 25 113 27 76 2 80 2 28 5 -44 3 -63 8 -63 17 0
17 33 31 38 17 2 -6 8 -11 14 -11 7 0 6 5 -1 14 -8 10 -9 16 -1 21 13 8 13 35
0 35 -6 0 -9 -3 -9 -7 3 -21 -3 -31 -21 -36 -11 -3 -20 -1 -20 4 0 5 -18 9
-40 9 -54 0 -55 27 -2 35 20 3 51 10 67 14 l30 9 -29 1 c-23 1 -27 5 -23 21 4
16 -2 20 -39 26 -27 4 -43 11 -41 18 4 13 106 26 113 14 3 -4 10 -8 17 -8 6 0
0 11 -13 24 -14 13 -31 21 -37 18 -7 -2 -13 1 -13 7 0 6 9 11 21 11 11 0 17 5
14 10 -3 6 -23 10 -43 10 -20 0 -44 5 -52 10 -13 9 -13 11 0 20 8 5 32 10 52
10 20 0 40 5 43 10 3 6 -1 10 -9 10 -15 0 -20 11 -17 37 1 7 -14 13 -35 15
-50 4 -54 24 -7 35 31 7 38 13 38 32 0 18 -8 26 -34 35 -49 16 -49 33 -1 41
46 8 47 13 4 89 -58 103 -54 181 -54 -1172z m135 98 c1 -23 -11 -27 -65 -20
-54 7 -66 13 -55 30 11 17 120 9 120 -10z m722 -162 c-3 -8 -6 -5 -6 6 -1 11
2 17 5 13 3 -3 4 -12 1 -19z m-702 -88 c3 -5 2 -10 -4 -10 -5 0 -13 5 -16 10
-3 6 -2 10 4 10 5 0 13 -4 16 -10z m0 -33 c17 -9 25 -16 18 -17 -6 0 -14 -8
-16 -17 -4 -14 -5 -13 -6 4 0 12 -10 24 -21 28 -11 3 -20 14 -20 23 0 11 3 13
8 6 4 -6 21 -18 37 -27z m-25 -36 c0 -11 -3 -22 -8 -25 -8 -5 -103 11 -111 20
-11 11 26 24 72 24 40 0 47 -3 47 -19z m20 -51 c0 -5 -2 -10 -4 -10 -3 0 -8 5
-11 10 -3 6 -1 10 4 10 6 0 11 -4 11 -10z m-20 -50 c0 -27 -20 -34 -76 -25
-72 10 -41 41 44 44 26 1 32 -3 32 -19z m20 -40 c0 -5 -2 -10 -4 -10 -3 0 -8
5 -11 10 -3 6 -1 10 4 10 6 0 11 -4 11 -10z m30 -20 c0 -5 -2 -10 -4 -10 -3 0
-8 5 -11 10 -3 6 -1 10 4 10 6 0 11 -4 11 -10z m-16 -36 c5 -14 4 -15 -9 -4
-17 14 -19 20 -6 20 5 0 12 -7 15 -16z m-36 -16 c-2 -19 -9 -23 -36 -21 -110
5 -109 38 1 42 34 1 38 -1 35 -21z m37 -28 c3 -5 1 -10 -4 -10 -6 0 -11 5 -11
10 0 6 2 10 4 10 3 0 8 -4 11 -10z m653 -115 c-3 -3 -9 2 -12 12 -6 14 -5 15
5 6 7 -7 10 -15 7 -18z m-631 -11 c-3 -3 -12 -4 -19 -1 -8 3 -5 6 6 6 11 1 17
-2 13 -5z m40 0 c-3 -3 -12 -4 -19 -1 -8 3 -5 6 6 6 11 1 17 -2 13 -5z m-97
-59 c0 -22 -23 -28 -75 -21 -29 5 -45 12 -45 22 0 11 14 14 60 14 47 0 60 -3
60 -15z m20 -35 c0 -5 -5 -10 -11 -10 -5 0 -7 5 -4 10 3 6 8 10 11 10 2 0 4
-4 4 -10z m0 -50 c0 -5 -2 -10 -4 -10 -3 0 -8 5 -11 10 -3 6 -1 10 4 10 6 0
11 -4 11 -10z m-25 -10 c16 -26 -3 -36 -56 -30 -55 5 -77 25 -37 33 45 8 87 7
93 -3z m566 -9 c7 11 9 10 9 -3 0 -9 -4 -20 -10 -23 -5 -3 -10 -4 -10 -1 0 2
-2 10 -3 18 -2 7 -2 9 1 4 2 -4 8 -2 13 5z m319 -7 c0 -8 -5 -12 -10 -9 -6 4
-8 11 -5 16 9 14 15 11 15 -7z m-820 -18 c0 -3 -4 -8 -10 -11 -5 -3 -10 -1
-10 4 0 6 5 11 10 11 6 0 10 -2 10 -4z m-35 -16 c3 -5 1 -10 -4 -10 -6 0 -11
5 -11 10 0 6 2 10 4 10 3 0 8 -4 11 -10z m822 -32 c-3 -7 -5 -2 -5 12 0 14 2
19 5 13 2 -7 2 -19 0 -25z m-603 -15 c-3 -10 -14 -29 -25 -43 -18 -23 -18 -22
2 18 22 45 30 53 23 25z m-246 -25 c-2 -13 -6 -22 -10 -20 -5 1 -25 2 -45 2
-21 0 -45 5 -53 10 -24 16 6 30 63 30 44 0 48 -2 45 -22z m842 2 c0 -11 -4
-20 -9 -20 -5 0 -7 9 -4 20 3 11 7 20 9 20 2 0 4 -9 4 -20z m-660 -31 c-7 -11
-14 -18 -17 -15 -3 3 0 12 7 21 18 21 23 19 10 -6z m240 6 c0 -8 -4 -15 -10
-15 -5 0 -7 7 -4 15 4 8 8 15 10 15 2 0 4 -7 4 -15z m30 -6 c0 -6 -4 -7 -10
-4 -5 3 -10 11 -10 16 0 6 5 7 10 4 6 -3 10 -11 10 -16z m-303 -31 c-3 -7 -5
-2 -5 12 0 14 2 19 5 13 2 -7 2 -19 0 -25z m44 -19 c-5 -13 -10 -19 -10 -12
-1 15 10 45 15 40 3 -2 0 -15 -5 -28z m-196 -24 c0 -18 -6 -20 -55 -17 -76 5
-83 17 -18 32 51 13 73 8 73 -15z m885 5 c0 -5 -4 -10 -10 -10 -5 0 -10 5 -10
10 0 6 5 10 10 10 6 0 10 -4 10 -10z m-750 -110 c0 -28 -34 -34 -142 -26 -93
7 -108 10 -108 26 0 13 34 17 148 19 95 1 102 0 102 -19z m672 -20 c3 -17 -1
-35 -8 -40 -9 -8 -11 -3 -8 22 1 18 3 36 3 41 2 17 9 5 13 -23z m-92 -40 c0
-5 -5 -10 -11 -10 -5 0 -7 5 -4 10 3 6 8 10 11 10 2 0 4 -4 4 -10z m38 -36
c-7 -15 -14 -21 -16 -15 -5 16 5 41 17 41 7 0 6 -10 -1 -26z"/>
<path d="M1688 3200 c-2 -49 1 -71 10 -75 17 -6 15 -30 -3 -45 -20 -17 -19
-33 5 -61 l19 -24 1 138 c0 112 -3 137 -14 137 -11 0 -15 -18 -18 -70z"/>
<path d="M1699 2982 c-20 -4 -22 -72 -2 -72 7 0 13 -9 13 -20 0 -11 -6 -20
-13 -20 -17 0 -16 -62 1 -68 17 -5 15 -29 -3 -36 -9 -3 -15 -18 -15 -35 0 -16
6 -31 15 -35 19 -7 20 -36 2 -36 -9 0 -14 -13 -15 -35 -1 -25 3 -35 13 -35 8
0 15 -9 15 -20 0 -11 -7 -20 -15 -20 -10 0 -15 -11 -15 -35 0 -24 5 -35 15
-35 8 0 15 -6 15 -14 0 -8 -7 -16 -15 -20 -9 -3 -15 -18 -15 -36 0 -18 6 -33
15 -36 8 -4 15 -12 15 -19 0 -7 -7 -15 -15 -19 -9 -3 -15 -18 -15 -36 0 -18 6
-33 15 -36 19 -8 20 -34 1 -34 -8 0 -15 -14 -18 -35 -3 -29 -1 -35 15 -35 27
0 17 -33 -13 -41 -14 -4 -19 -7 -11 -8 9 -1 12 -10 9 -31 -4 -24 -1 -30 14
-30 24 0 23 -27 -1 -35 -13 -4 -17 -12 -13 -30 3 -17 0 -25 -9 -26 -8 -1 -3
-4 11 -8 32 -9 40 -41 10 -41 -16 0 -21 -5 -19 -22 2 -13 0 -29 -4 -35 -6 -9
-1 -13 17 -13 30 0 35 -24 9 -38 -24 -14 -26 -60 -2 -67 25 -8 24 -32 -2 -40
-11 -4 -18 -12 -16 -18 2 -7 0 -20 -5 -29 -7 -14 -3 -19 17 -24 27 -7 35 -34
10 -34 -17 0 -42 -53 -27 -58 42 -14 52 -52 13 -52 -14 0 -18 -8 -18 -35 0
-30 4 -35 24 -35 34 0 28 -27 -8 -35 -18 -4 -27 -10 -22 -14 6 -3 9 -16 8 -29
-1 -16 5 -24 22 -28 32 -8 30 -34 -3 -34 -21 0 -25 -4 -21 -20 3 -11 -1 -27
-9 -35 -12 -12 -10 -14 18 -17 38 -3 46 -31 12 -36 -15 -2 -23 -12 -26 -32 -4
-25 -1 -30 24 -35 33 -8 37 -32 6 -37 -16 -2 -24 -12 -29 -35 -6 -28 -4 -32
22 -37 37 -7 37 -32 2 -39 -26 -5 -28 -9 -27 -54 1 -26 -1 -50 -5 -53 -4 -3
-14 -21 -24 -40 -9 -19 -17 -29 -17 -23 0 9 -6 7 -19 -4 -11 -9 -18 -20 -15
-25 3 -5 0 -7 -7 -6 -7 2 -29 -30 -49 -69 -20 -40 -39 -70 -43 -67 -3 3 -4
-15 -2 -41 3 -31 0 -48 -9 -51 -27 -10 -12 -48 29 -71 22 -12 41 -21 43 -19 1
2 4 41 6 87 3 110 34 176 116 253 l60 55 -2 1083 c-3 982 -4 1083 -19 1080z"/>
<path d="M1100 2670 c-8 -5 -12 -12 -9 -15 4 -3 12 1 19 10 14 17 11 19 -10 5z"/>
<path d="M1394 2617 c-10 -23 -25 -48 -32 -56 -7 -7 -16 -26 -19 -42 -3 -16
-10 -32 -14 -35 -5 -3 -16 -21 -24 -40 -8 -19 -18 -34 -22 -34 -5 0 -31 41
-58 90 -27 50 -53 90 -56 90 -3 0 -37 -32 -74 -71 -47 -50 -65 -76 -62 -90 3
-10 1 -17 -3 -14 -5 3 -10 2 -13 -2 -2 -5 -2 -2 0 6 3 11 1 12 -12 1 -9 -8
-13 -20 -9 -33 4 -12 2 -17 -4 -13 -13 8 -44 -22 -37 -35 4 -5 3 -9 -2 -9 -8
0 -31 -42 -73 -130 -28 -59 -71 -236 -69 -280 1 -19 -2 -43 -6 -53 -4 -10 -4
-44 0 -75 4 -31 9 -73 11 -92 7 -68 16 -110 27 -117 7 -4 8 0 4 11 -4 10 -12
58 -17 108 -13 111 -4 235 19 262 9 11 10 16 4 12 -7 -4 -13 -2 -13 3 0 6 4
11 10 11 5 0 9 11 8 25 -1 14 -6 25 -11 25 -4 0 -5 5 -2 10 4 6 10 8 15 5 9
-5 25 42 21 64 -1 7 7 20 19 28 12 8 19 20 17 27 -2 6 0 22 5 36 7 20 11 22
19 10 8 -11 9 -10 4 8 -4 14 -2 22 5 22 7 0 10 8 7 20 -3 11 -2 18 3 15 12 -7
50 30 50 49 0 9 7 19 15 22 8 4 15 12 15 20 0 8 6 14 14 14 8 0 25 14 37 31
18 26 19 33 8 40 -9 6 -10 9 -2 9 7 0 16 -7 21 -17 6 -9 16 -14 25 -10 9 3 27
-5 43 -19 15 -14 24 -19 21 -10 -4 10 -1 13 9 9 8 -3 13 -12 10 -20 -3 -8 -2
-12 3 -9 5 3 14 -1 21 -9 10 -12 16 -13 28 -3 13 10 14 10 8 1 -11 -20 12 -15
33 6 11 11 21 17 24 15 4 -5 41 103 42 124 0 7 6 16 13 21 8 4 13 14 12 22 -5
34 1 70 10 64 6 -3 10 -2 10 4 0 27 -19 16 -36 -22z m-304 -132 c-7 -9 -15
-13 -17 -11 -7 7 7 26 19 26 6 0 6 -6 -2 -15z m263 -40 c-7 -21 -12 -19 -10 4
0 11 5 18 9 15 4 -3 5 -11 1 -19z m-253 1 c0 -11 -19 -15 -25 -6 -3 5 1 10 9
10 9 0 16 -2 16 -4z"/>
<path d="M2288 2593 c7 -3 16 -2 19 1 4 3 -2 6 -13 5 -11 0 -14 -3 -6 -6z"/>
<path d="M2213 2491 c1 -5 -7 -17 -18 -25 -11 -8 -15 -16 -8 -16 14 0 43 27
43 41 0 5 -4 9 -10 9 -5 0 -9 -4 -7 -9z"/>
<path d="M1852 2368 c-8 -8 -11 -53 -10 -147 l2 -136 3 110 c3 93 7 112 24
128 36 33 45 6 48 -138 1 -71 4 -132 7 -134 2 -2 4 65 4 150 0 163 -4 179 -45
179 -12 0 -26 -5 -33 -12z"/>
<path d="M2170 2330 c0 -5 5 -10 10 -10 6 0 10 5 10 10 0 6 -4 10 -10 10 -5 0
-10 -4 -10 -10z"/>
<path d="M2205 2319 c-11 -17 0 -20 21 -4 17 13 17 14 2 15 -9 0 -20 -5 -23
-11z"/>
<path d="M2220 2285 c-7 -9 -8 -15 -2 -15 5 0 12 7 16 15 3 8 4 15 2 15 -2 0
-9 -7 -16 -15z"/>
<path d="M2983 2285 c3 -11 11 -39 17 -62 6 -23 14 -45 19 -48 9 -5 -25 115
-36 125 -3 3 -3 -4 0 -15z"/>
<path d="M2180 2196 c0 -2 7 -7 16 -10 8 -3 12 -2 9 4 -6 10 -25 14 -25 6z"/>
<path d="M712 1965 c0 -16 2 -22 5 -12 2 9 2 23 0 30 -3 6 -5 -1 -5 -18z"/>
<path d="M698 1858 c-1 -18 -1 -55 1 -81 1 -31 -2 -46 -9 -42 -7 4 -7 -2 -1
-19 6 -13 11 -59 12 -100 1 -42 6 -76 11 -76 5 0 6 -4 3 -10 -3 -5 -1 -10 4
-10 6 0 11 -5 11 -11 0 -5 -5 -7 -11 -4 -7 5 -9 -5 -5 -31 4 -21 12 -42 19
-46 9 -6 9 -8 0 -8 -9 0 -9 -8 -1 -30 5 -17 7 -37 4 -46 -4 -12 -2 -15 9 -10
11 4 15 -2 15 -27 0 -18 9 -47 20 -65 11 -18 20 -41 20 -52 0 -11 4 -20 9 -20
5 0 11 -10 15 -23 3 -13 17 -36 31 -51 14 -15 25 -31 25 -36 0 -4 18 -28 40
-51 22 -24 46 -56 52 -71 7 -15 25 -33 40 -39 16 -6 28 -19 28 -29 0 -15 66
-67 121 -95 10 -5 19 -13 19 -18 0 -4 -4 -5 -10 -2 -5 3 -10 4 -10 1 0 -6 72
-40 108 -51 12 -3 38 -1 57 5 27 9 35 17 35 35 0 13 6 25 13 28 10 4 10 7 0
18 -7 7 -13 23 -13 36 0 13 -5 23 -10 23 -7 0 -7 7 0 21 7 11 9 23 6 27 -3 3
-6 0 -6 -6 0 -6 -7 -18 -16 -26 -14 -14 -20 -13 -66 12 -28 15 -58 32 -67 37
-89 55 -242 206 -300 297 -22 35 -44 68 -49 73 -12 15 -61 121 -84 185 -11 30
-28 98 -38 150 -10 52 -19 97 -20 100 -1 3 -1 42 0 88 1 45 -1 82 -4 82 -3 0
-7 -15 -8 -32z"/>
<path d="M2298 1680 c-3 -20 0 -30 9 -30 8 0 13 12 13 30 0 17 -4 30 -9 30 -5
0 -11 -13 -13 -30z"/>
<path d="M846 1545 c8 -37 14 -45 14 -19 0 10 -5 26 -10 34 -8 11 -9 7 -4 -15z"/>
<path d="M2319 1531 c-4 -33 -3 -41 4 -41 4 0 12 0 17 0 15 0 12 26 -5 40 -10
9 -15 9 -16 1z"/>
<path d="M3210 1479 c0 -5 5 -7 10 -4 6 3 10 8 10 11 0 2 -4 4 -10 4 -5 0 -10
-5 -10 -11z"/>
<path d="M3226 1445 c-3 -9 -6 -22 -5 -28 0 -7 5 -1 10 12 5 13 8 26 5 28 -2
2 -6 -3 -10 -12z"/>
<path d="M3253 1427 c-8 -17 -8 -24 0 -24 7 0 13 11 13 24 2 29 0 29 -13 0z"/>
<path d="M2437 1307 c4 -18 3 -19 -6 -7 -12 18 -15 1 -2 -18 6 -10 12 -7 24
12 21 31 21 31 -2 33 -14 1 -18 -4 -14 -20z"/>
<path d="M2543 1278 c-2 -18 0 -20 7 -8 12 18 13 30 2 30 -4 0 -9 -10 -9 -22z"/>
<path d="M2406 1267 c3 -10 9 -15 12 -12 3 3 0 11 -7 18 -10 9 -11 8 -5 -6z"/>
<path d="M2558 1243 c7 -3 16 -2 19 1 4 3 -2 6 -13 5 -11 0 -14 -3 -6 -6z"/>
<path d="M2645 1230 c3 -5 8 -10 11 -10 2 0 4 5 4 10 0 6 -5 10 -11 10 -5 0
-7 -4 -4 -10z"/>
<path d="M3145 1219 c-4 -6 -5 -12 -2 -15 2 -3 7 2 10 11 7 17 1 20 -8 4z"/>
<path d="M3171 1204 c0 -11 3 -14 6 -6 3 7 2 16 -1 19 -3 4 -6 -2 -5 -13z"/>
<path d="M1140 1086 c0 -2 8 -10 18 -17 15 -13 16 -12 3 4 -13 16 -21 21 -21
13z"/>
<path d="M1260 996 c0 -2 11 -11 25 -20 14 -9 25 -13 25 -8 0 5 -11 14 -25 20
-14 6 -25 10 -25 8z"/>
<path d="M1332 961 c-11 -6 -10 -10 4 -15 9 -3 19 -4 22 -1 3 3 0 5 -7 5 -7 0
-9 5 -6 10 7 12 4 12 -13 1z"/>
</g>
</svg>
